# xmcd
#
# Track frame offsets: 
#        150
#        13870
#        27777
#        41667
#        54835
#        67212
#        81022
#        95025
#        107840
#        122260
#        135180
#        149752
#        162552
#        176945
#        191635
#        203367
#        214927
#        227960
#        240685
#        253885
#        268035
#        282105
#        296000
#        309260
#        323285
#
# Disc length: 4521 seconds
#
# Revision: 1
# Processed by: cddbd v1.5.2PL0 Copyright (c) Steve Scherf et al.
# Submitted via: ExactAudioCopyFreeDBPlugin 1.0
#
DISCID=7011a719
DTITLE=Esther Bigeou - Complete Recorded Works (1921-1928)
DYEAR=1996
DGENRE=Blues
TTITLE0=The Memphis Blues
TTITLE1=The St. Louis Blues
TTITLE2=Stingaree Blues (A Down Home Blues)
TTITLE3=Nervous Blues
TTITLE4=If That's What You Want Here It Is
TTITLE5=Aggravatin' Papa (Don't You Try to Two-Time Me)
TTITLE6=Four O'Clock Blues
TTITLE7=I'm Through with You (As I Can Be)
TTITLE8=Beale Street Mama
TTITLE9=Outside of That, He's All Right with Me
TTITLE10=The Gulf Coast Blues
TTITLE11=Beale Street Blues
TTITLE12=The Hesitating Blues
TTITLE13=That Twa-Twa Tune
TTITLE14=Panama Limited Blues
TTITLE15=You Ain't Treatin' Me Right
TTITLE16=West Indies Blues
TTITLE17=Lillyn Brown - If That's What You Want Here It Is
TTITLE18=Lillyn Brown - Ever Lovin' Blues
TTITLE19=Lillyn Brown - Bad-Land Blues
TTITLE20=Lillyn Brown - The Jazz-Me Blues
TTITLE21=Ada Brown - Panama Limited Blues
TTITLE22=Ada Brown - Tia Juana Man
TTITLE23=Alberta Brown - Lonely Blues
TTITLE24=Alberta Brown - How Long
EXTD=
EXTT0=
EXTT1=
EXTT2=
EXTT3=
EXTT4=
EXTT5=
EXTT6=
EXTT7=
EXTT8=
EXTT9=
EXTT10=
EXTT11=
EXTT12=
EXTT13=
EXTT14=
EXTT15=
EXTT16=
EXTT17=
EXTT18=
EXTT19=
EXTT20=
EXTT21=
EXTT22=
EXTT23=
EXTT24=
PLAYORDER=
